# xmcd
# 
# Track frame offsets:
#     150
#     18116
#     34499
#     59490
#     97436
#     118324
#     138545
#     160361
#     182582
#     206161
#     229568
#     247133
# 
# Disc length: 3813
# 
# Revision: 31
# Processed by: cddbd v1.5.2PL0 Copyright (c) Steve Scherf et al.
# Submitted via: fre:ac v1.0.17
# 
DISCID=b70ee30c
DTITLE=Jean-Jacques Goldman - Chansons pour les pieds
DYEAR=2001
DGENRE=Chanson
TTITLE0=Ensemble
TTITLE1=Et l'on n'y peut rien
TTITLE2=Une poussière
TTITLE3=La pluie
TTITLE4=Tournent les violons
TTITLE5=Un goût sur tes lèvres
TTITLE6=Si je t'avais pas
TTITLE7=C'est pas vrai
TTITLE8=The Quo's in town tonite
TTITLE9=Je voudrais vous revoir
TTITLE10=Les p'tits chapeaux
TTITLE11=Les choses
EXTD=YEAR: 2001
EXTT0=
EXTT1=
EXTT2=
EXTT3=
EXTT4=
EXTT5=
EXTT6=
EXTT7=
EXTT8=
EXTT9=
EXTT10=
EXTT11=
PLAYORDER=
